<svg xmlns="http://www.w3.org/2000/svg" viewBox="0 0 64 64" role="img" aria-labelledby="title">
  <title id="title">Bitcoin resource</title>
  <circle cx="32" cy="32" r="26" fill="#F3C244"/>
  <g transform="rotate(14 32 32)" fill="#FFF7EC">
    <path fill-rule="evenodd" d="M23 15 H34 A8.5 8.5 0 0 1 34 32 H35 A8.5 8.5 0 0 1 35 49 H23 Z
             M29 21 H33 A3.5 3.5 0 0 1 33 28 H29 Z
             M29 38 H34 A3.5 3.5 0 0 1 34 45 H29 Z"/>
    <rect x="25.5" y="1" width="5" height="15"/>
    <rect x="33.5" y="1" width="5" height="15"/>
    <rect x="25.5" y="48" width="5" height="15"/>
    <rect x="33.5" y="48" width="5" height="15"/>
  </g>
</svg>
