<svg xmlns="http://www.w3.org/2000/svg" viewBox="0 0 64 64"
     role="img" aria-labelledby="title">
  <title id="title">Bitcoin resource</title>
  <defs>
    <filter id="shine" x="-25%" y="-25%" width="150%" height="150%">
      <feGaussianBlur stdDeviation="0.7"/>
    </filter>
  </defs>
  <g filter="url(#shine)" opacity="0.5"><path d="M25 13v38M25 17h12a8 8 0 0 1 0 16H25M25 33h14a8 8 0 0 1 0 16H25" fill="none" stroke="#FFE08A" stroke-width="5.6" stroke-linecap="round" stroke-linejoin="round"/><path d="M31 7v6M39 7v6M31 51v6M39 51v6" fill="none" stroke="#FFE08A" stroke-width="5.6" stroke-linecap="round"/><circle cx="25" cy="13" r="4.2" fill="#FFE08A"/><circle cx="25" cy="51" r="4.2" fill="#FFE08A"/></g>
  <path d="M25 13v38M25 17h12a8 8 0 0 1 0 16H25M25 33h14a8 8 0 0 1 0 16H25" fill="none" stroke="#F3C244" stroke-width="4.0" stroke-linecap="round" stroke-linejoin="round"/><path d="M31 7v6M39 7v6M31 51v6M39 51v6" fill="none" stroke="#F3C244" stroke-width="4.0" stroke-linecap="round"/><circle cx="25" cy="13" r="3.4" fill="#F3C244"/><circle cx="25" cy="51" r="3.4" fill="#F3C244"/>
</svg>
